<?xml version="1.0" encoding="UTF-8"?>
<svg version="1.1" xmlns="http://www.w3.org/2000/svg" width="32" height="32">
<path d="M0 0 C2.68777802 -0.0544207 5.37443212 -0.09387266 8.0625 -0.125 C8.81466797 -0.14175781 9.56683594 -0.15851562 10.34179688 -0.17578125 C11.08623047 -0.18222656 11.83066406 -0.18867188 12.59765625 -0.1953125 C13.27320557 -0.20578613 13.94875488 -0.21625977 14.64477539 -0.22705078 C17 -0 17 -0 24 2 C24 11.24 24 20.48 24 30 C17.73 30 11.46 30 5 30 C5 29.34 5 28.68 5 28 C3.35 28 1.7 28 0 28 C-0.33 27.01 -0.66 26.02 -1 25 C-2.2684375 23.9171875 -2.2684375 23.9171875 -3.5625 22.8125 C-6.38423369 19.55665344 -6.74561437 18.0815705 -6.50390625 13.91015625 C-5.68494099 10.80570653 -3.27767376 9.16656772 -1 7 C-0.30257035 3.41121277 -0.30257035 3.41121277 0 0 Z M1 1 C1 2.98 1 4.96 1 7 C2.6396875 7.4021875 2.6396875 7.4021875 4.3125 7.8125 C8 9 8 9 9.4375 10.59375 C10.93017156 12.2408133 10.93017156 12.2408133 13.26171875 12.07421875 C14.06222656 11.94660156 14.86273438 11.81898437 15.6875 11.6875 C16.89986328 11.50767578 16.89986328 11.50767578 18.13671875 11.32421875 C18.75160156 11.21722656 19.36648437 11.11023437 20 11 C20 11.66 20 12.32 20 13 C17.03 13 14.06 13 11 13 C10.35261178 18.187872 10.35261178 18.187872 12.1953125 22.8671875 C13.74572693 24.49551221 15.07418143 25.83390802 17 27 C18.32 27 19.64 27 21 27 C21 20.73 21 14.46 21 8 C19.02 8 17.04 8 15 8 C15 5.69 15 3.38 15 1 C10.38 1 5.76 1 1 1 Z M16 3 C16 3.99 16 4.98 16 6 C16.99 5.67 17.98 5.34 19 5 C18.01 4.34 17.02 3.68 16 3 Z M20 3 C20.33 3.66 20.66 4.32 21 5 C21.15266612 6.73868744 21.24932596 8.48247501 21.31640625 10.2265625 C21.35830078 11.2578125 21.40019531 12.2890625 21.44335938 13.3515625 C21.48267578 14.43179687 21.52199219 15.51203125 21.5625 16.625 C21.60568359 17.71296875 21.64886719 18.8009375 21.69335938 19.921875 C21.7996453 22.6144517 21.90168057 25.30712253 22 28 C20.35 28 18.7 28 17 28 C17 28.33 17 28.66 17 29 C18.98 29 20.96 29 23 29 C23 20.42 23 11.84 23 3 C22.01 3 21.02 3 20 3 Z M-2 13 C-2.5 16 -2.5 16 -2 19 C0.76988076 21.31543207 0.76988076 21.31543207 3.625 20.6875 C5.93501965 20.2258486 5.93501965 20.2258486 7 19 C7.33340471 16.04195427 7.33340471 16.04195427 7 13 C2.98990901 10.32660601 2.01009099 10.32660601 -2 13 Z M9 22 C10.04874998 24.62187494 10.64931313 25.79371361 13.125 27.25 C13.74375 27.4975 14.3625 27.745 15 28 C13.35830472 25.97945196 11.69088222 23.97956942 10 22 C9.67 22 9.34 22 9 22 Z M6 24 C3.34533951 24.23043864 3.34533951 24.23043864 1 25 C1 25.66 1 26.32 1 27 C3.64 27 6.28 27 9 27 C7.8354799 25.33378575 7.8354799 25.33378575 6 24 Z M6 28 C6 28.33 6 28.66 6 29 C7.65 29 9.3 29 11 29 C11 28.67 11 28.34 11 28 C9.35 28 7.7 28 6 28 Z " fill="#000000" transform="translate(7,1)"/>
<path d="M0 0 C2.31 0 4.62 0 7 0 C7 0.66 7 1.32 7 2 C4.69 2 2.38 2 0 2 C0 1.34 0 0.68 0 0 Z " fill="#000000" transform="translate(14,3)"/>
<path d="M0 0 C3.63 0 7.26 0 11 0 C11 0.33 11 0.66 11 1 C7.37 1 3.74 1 0 1 C0 0.67 0 0.34 0 0 Z " fill="#000000" transform="translate(10,6)"/>
<path d="M0 0 C1.65 0 3.3 0 5 0 C5 0.66 5 1.32 5 2 C3.35 2 1.7 2 0 2 C0 1.34 0 0.68 0 0 Z " fill="#000000" transform="translate(22,17)"/>
<path d="M0 0 C2.97 0 5.94 0 9 0 C9 0.33 9 0.66 9 1 C6.03 1 3.06 1 0 1 C0 0.67 0 0.34 0 0 Z " fill="#000000" transform="translate(18,10)"/>
<path d="M0 0 C2.64 0 5.28 0 8 0 C8 0.33 8 0.66 8 1 C5.36 1 2.72 1 0 1 C0 0.67 0 0.34 0 0 Z " fill="#000000" transform="translate(19,15)"/>
<path d="M0 0 C0.99 0 1.98 0 3 0 C3 0.66 3 1.32 3 2 C2.01 2 1.02 2 0 2 C0 1.34 0 0.68 0 0 Z " fill="#000000" transform="translate(10,3)"/>
<path d="M0 0 C0.66 0 1.32 0 2 0 C2 0.66 2 1.32 2 2 C1.34 2 0.68 2 0 2 C0 1.34 0 0.68 0 0 Z " fill="#000000" transform="translate(19,17)"/>
</svg>
